<?xml version="1.0" encoding="iso-8859-1"?>
<svg version="1.1" id="Layer_1" xmlns="http://www.w3.org/2000/svg" xmlns:xlink="http://www.w3.org/1999/xlink" x="0px" y="0px"
	 viewBox="0 0 177.67 177.67" style="enable-background:new 0 0 177.67 177.67;" xml:space="preserve">
<g>
	<g>
		<g>
			<path d="M168.103,30.473c-1.974-2.977-5.304-4.121-8.242-5.134c-2.05-0.704-3.983-1.371-5.077-2.461
				c-1.447-1.451-2.396-3.608-3.395-5.892c-1.382-3.15-2.948-6.722-6.289-8.757C115.285-9.943,78.965,2.03,37.151,43.843
				c-38.897,38.897-48.86,92.225-22.209,118.879c10.103,10.1,24.031,14.942,39.561,14.942c25.442,0,55.164-12.997,79.318-37.151
				C176.633,97.7,188.169,60.679,168.103,30.473z M128.596,135.288c-36.018,36.007-84.658,45.981-108.43,22.209
				C-3.602,133.725,6.361,85.082,42.375,49.067C81.46,9.978,114.722-1.634,141.254,14.535c1.353,0.826,2.331,3.056,3.366,5.416
				c1.176,2.681,2.508,5.719,4.94,8.151c2.302,2.299,5.272,3.323,7.895,4.226c1.92,0.66,3.901,1.342,4.492,2.234
				C179.791,61.422,168.569,95.311,128.596,135.288z"/>
			<path d="M141.593,34.265c-42.437-1.479-53.955,28.12-64.008,54.226c-9.003,23.367-17.5,45.44-45.714,48.543
				c-2.028,0.224-3.493,2.05-3.269,4.077c0.209,1.891,1.808,3.291,3.67,3.291c0.133,0,0.27-0.007,0.408-0.022
				c32.684-3.594,42.401-28.83,51.801-53.233c9.804-25.464,19.074-49.546,54.11-49.546c0.899,0,1.819,0.018,2.749,0.047
				c2.039,0.162,3.749-1.526,3.818-3.565C145.23,36.046,143.632,34.335,141.593,34.265z"/>
		</g>
	</g>
</g>
<g>
</g>
<g>
</g>
<g>
</g>
<g>
</g>
<g>
</g>
<g>
</g>
<g>
</g>
<g>
</g>
<g>
</g>
<g>
</g>
<g>
</g>
<g>
</g>
<g>
</g>
<g>
</g>
<g>
</g>
</svg>
