<?xml version="1.0" standalone="no"?>
<!DOCTYPE svg PUBLIC "-//W3C//DTD SVG 20010904//EN"
 "http://www.w3.org/TR/2001/REC-SVG-20010904/DTD/svg10.dtd">
<svg version="1.0" xmlns="http://www.w3.org/2000/svg"
 width="700.000000pt" height="700.000000pt" viewBox="0 0 700.000000 700.000000"
 preserveAspectRatio="xMidYMid meet">
<metadata>
Created by potrace 1.11, written by Peter Selinger 2001-2013
</metadata>
<g transform="translate(0.000000,700.000000) scale(0.100000,-0.100000)"
fill="#000000" stroke="none">
<path d="M4418 6995 c-2 -1 -38 -5 -80 -9 -43 -4 -83 -8 -90 -11 -7 -2 -32 -6
-55 -9 -46 -6 -47 -6 -195 -41 -436 -102 -936 -348 -1423 -698 -120 -86 -347
-260 -381 -292 -6 -5 -30 -26 -54 -45 -45 -36 -111 -91 -120 -100 -3 -3 -43
-39 -90 -80 -154 -136 -201 -180 -400 -374 -122 -119 -313 -321 -352 -371 -12
-16 -33 -41 -46 -55 -50 -54 -217 -272 -307 -400 -210 -300 -427 -701 -552
-1020 -74 -192 -178 -539 -208 -698 -21 -113 -42 -268 -55 -397 -8 -84 -5
-494 3 -532 3 -12 9 -53 12 -90 4 -37 9 -71 12 -75 2 -4 5 -20 7 -36 7 -53 54
-237 82 -317 130 -382 354 -694 674 -938 82 -64 262 -166 380 -217 153 -67
407 -140 545 -156 22 -3 49 -7 61 -9 122 -26 579 -26 744 0 14 2 74 11 134 20
60 9 112 17 115 19 3 2 24 7 46 10 110 17 424 108 572 165 43 17 82 31 86 31
4 0 29 10 55 21 26 12 83 37 127 56 201 86 552 280 767 424 133 89 453 331
488 369 3 3 25 22 50 44 136 117 315 291 521 506 44 45 163 177 290 320 91
103 303 367 394 492 41 57 78 108 83 113 4 6 51 75 103 155 160 243 311 519
398 730 48 116 109 279 121 325 4 17 17 66 29 109 66 241 90 433 85 691 -2
105 -6 205 -9 223 -29 189 -51 279 -107 442 -37 107 -163 376 -192 410 -7 8
-26 37 -42 64 -61 106 -151 169 -336 234 -220 78 -227 85 -376 402 -76 161
-130 224 -257 299 -248 146 -509 237 -805 282 -66 10 -443 22 -452 14z m353
-299 c37 -4 75 -8 86 -11 11 -2 38 -6 59 -9 136 -22 400 -110 509 -171 128
-71 157 -89 179 -115 24 -29 29 -38 114 -221 123 -263 213 -345 486 -443 143
-52 165 -67 214 -145 23 -38 42 -71 42 -75 0 -3 13 -27 28 -53 75 -128 165
-388 187 -543 4 -24 8 -47 10 -50 6 -9 17 -178 18 -255 0 -79 -12 -295 -17
-304 -2 -3 -7 -28 -11 -56 -18 -137 -79 -358 -151 -542 -51 -134 -177 -395
-255 -528 -63 -110 -236 -373 -312 -475 -31 -41 -70 -95 -89 -120 -41 -57
-287 -360 -308 -380 -8 -8 -46 -51 -85 -95 -183 -209 -542 -571 -710 -714
-443 -379 -866 -637 -1420 -866 -55 -23 -239 -84 -345 -114 -92 -26 -130 -36
-225 -57 -55 -13 -340 -54 -410 -59 -85 -7 -387 -8 -420 -1 -11 2 -51 7 -90
11 -38 4 -79 9 -90 11 -11 3 -36 7 -55 10 -63 9 -223 55 -320 91 -441 163
-786 501 -960 938 -39 97 -88 263 -96 323 -3 26 -8 50 -10 53 -6 11 -24 144
-30 236 -11 149 -5 419 11 502 2 10 6 44 9 77 16 151 99 485 169 684 148 415
375 838 655 1218 51 71 160 210 172 222 3 3 18 21 34 40 107 132 460 494 632
650 168 152 228 205 320 281 55 46 116 97 135 113 19 15 102 79 184 140 431
322 819 540 1195 671 121 42 349 101 430 110 30 4 58 9 61 11 4 2 49 7 100 10
52 4 95 7 96 8 5 4 207 -2 274 -8z"/>
<path d="M5228 5645 c-2 -1 -30 -5 -63 -8 -53 -5 -133 -17 -230 -33 -69 -12
-231 -57 -317 -88 -255 -92 -475 -229 -669 -418 -326 -316 -540 -686 -837
-1443 -39 -99 -96 -245 -127 -325 -353 -902 -630 -1293 -1090 -1539 -126 -68
-353 -145 -485 -166 -25 -4 -54 -9 -65 -11 -10 -2 -37 -6 -60 -9 -66 -10 -99
-24 -124 -56 -32 -41 -41 -88 -26 -134 27 -76 87 -111 173 -101 26 4 65 9 87
12 211 28 503 125 680 226 233 133 454 331 611 547 73 100 114 161 114 167 0
3 8 18 19 32 36 51 117 197 179 326 68 137 212 469 212 486 0 6 5 18 10 28 6
9 68 166 139 347 174 445 212 532 320 745 35 69 69 135 75 147 6 13 14 23 19
23 4 0 7 5 7 11 0 16 122 200 188 283 60 75 197 216 272 280 214 182 544 321
860 362 25 3 56 8 70 10 14 3 120 8 235 11 229 6 247 10 287 65 31 44 31 121
0 165 -41 58 -71 64 -277 62 -101 -1 -186 -3 -187 -4z"/>
</g>
</svg>
